<?xml version="1.0" standalone="no"?>
<!DOCTYPE svg PUBLIC "-//W3C//DTD SVG 20010904//EN"
 "http://www.w3.org/TR/2001/REC-SVG-20010904/DTD/svg10.dtd">
<svg version="1.0" xmlns="http://www.w3.org/2000/svg"
 width="736.000000pt" height="102.000000pt" viewBox="0 0 736.000000 102.000000"
 preserveAspectRatio="xMidYMid meet">

<g transform="translate(0.000000,102.000000) scale(0.100000,-0.100000)"
fill="#000000" stroke="none">
<path d="M455 948 c-32 -17 -55 -51 -55 -80 -1 -93 102 -136 163 -68 44 50 34
115 -23 145 -34 18 -57 19 -85 3z"/>
<path d="M6207 803 c-29 -3 -37 -8 -35 -21 2 -10 14 -18 30 -20 14 -2 34 -12
44 -24 17 -18 19 -43 22 -282 4 -310 2 -325 -39 -333 -20 -4 -29 -11 -29 -24
0 -17 9 -19 115 -19 108 0 115 1 115 20 0 13 -7 20 -18 20 -11 0 -26 8 -35 18
-15 17 -17 55 -17 345 l0 327 -57 -2 c-32 -1 -75 -3 -96 -5z"/>
<path d="M6817 803 c-29 -3 -37 -8 -35 -21 2 -9 14 -19 28 -20 14 -2 33 -11
43 -19 15 -15 17 -43 17 -308 0 -307 0 -308 -45 -317 -11 -2 -21 -11 -23 -21
-3 -15 8 -17 117 -17 110 0 121 2 121 18 0 12 -11 21 -32 27 l-33 10 -3 149
c-2 142 -2 150 20 173 12 13 39 28 59 35 32 9 42 8 64 -6 39 -25 45 -54 45
-205 0 -145 -5 -161 -47 -161 -16 0 -23 -6 -23 -20 0 -19 7 -20 115 -20 108 0
115 1 115 20 0 13 -7 20 -19 20 -42 0 -51 34 -51 193 0 166 -11 206 -61 232
-54 29 -141 13 -191 -33 l-27 -25 -3 159 -3 159 -55 1 c-30 1 -72 -1 -93 -3z"/>
<path d="M1753 790 c-45 -18 -42 -103 4 -121 22 -8 32 -6 52 9 43 32 41 90 -4
110 -14 7 -27 12 -28 11 -1 0 -12 -4 -24 -9z"/>
<path d="M201 773 l-24 -16 44 -38 c24 -21 38 -39 31 -39 -8 0 -1 -16 19 -41
29 -37 30 -41 11 -35 -38 13 -44 -3 -16 -47 49 -80 105 -209 134 -312 16 -57
34 -113 40 -124 13 -26 44 -27 68 -3 20 20 252 455 252 472 0 5 -4 10 -9 10
-5 0 -7 10 -4 23 7 28 5 25 -53 -53 -26 -36 -62 -82 -80 -102 l-34 -38 -15 36
c-8 20 -15 39 -15 42 0 3 -21 39 -46 79 -49 78 -113 137 -196 179 -56 28 -75
30 -107 7z"/>
<path d="M980 731 c0 -12 10 -21 28 -26 15 -3 34 -13 43 -21 10 -9 67 -150
129 -315 99 -263 115 -299 134 -299 18 0 33 31 115 237 140 354 151 378 195
394 23 8 36 19 36 31 0 16 -11 18 -125 18 -115 0 -125 -1 -125 -19 0 -14 10
-20 39 -25 48 -7 64 -25 55 -63 -9 -36 -144 -386 -154 -396 -7 -8 -170 415
-170 439 0 14 23 24 56 24 17 0 24 6 24 20 0 19 -7 20 -140 20 -131 0 -140 -1
-140 -19z"/>
<path d="M4490 731 c0 -13 9 -21 30 -26 58 -13 60 -25 60 -297 0 -235 -1 -249
-20 -268 -11 -11 -31 -20 -45 -20 -18 0 -25 -5 -25 -20 0 -19 7 -20 140 -20
130 0 140 1 140 19 0 12 -9 21 -27 24 -57 13 -58 16 -58 154 l0 128 153 3 152
3 0 -130 c0 -123 -1 -131 -22 -145 -12 -9 -33 -16 -45 -16 -16 0 -23 -6 -23
-20 0 -19 7 -20 140 -20 131 0 140 1 140 19 0 13 -9 21 -29 26 -16 3 -35 12
-40 19 -8 9 -10 100 -9 282 l3 269 38 9 c26 7 37 15 37 28 0 17 -11 18 -140
18 -130 0 -140 -1 -140 -19 0 -12 9 -20 29 -24 54 -11 61 -28 61 -148 l0 -110
-152 3 -153 3 -3 107 c-2 97 -1 109 18 128 11 11 31 20 45 20 18 0 25 5 25 20
0 19 -7 20 -140 20 -131 0 -140 -1 -140 -19z"/>
<path d="M2010 621 l0 -70 -42 -3 c-35 -2 -44 -7 -46 -25 -3 -19 2 -22 40 -25
l43 -3 5 -188 5 -189 28 -24 c22 -18 39 -24 75 -23 66 1 116 21 120 47 3 20 0
21 -40 16 -34 -5 -48 -2 -68 14 -25 20 -25 22 -25 184 l0 163 63 3 c58 3 62 4
62 27 0 24 -3 25 -65 25 l-65 0 0 70 0 70 -45 0 -45 0 0 -69z"/>
<path d="M6540 621 l0 -70 -42 -3 c-35 -2 -44 -7 -46 -25 -3 -19 2 -22 40 -25
l43 -3 5 -188 5 -189 28 -24 c22 -18 39 -24 75 -23 66 1 116 21 120 47 3 20 0
21 -40 16 -34 -5 -48 -2 -68 14 -25 20 -25 22 -25 184 l0 163 63 3 c58 3 62 4
62 27 0 24 -3 25 -65 25 l-65 0 0 70 0 70 -45 0 -45 0 0 -69z"/>
<path d="M2491 526 l-51 -35 0 30 0 29 -64 0 c-35 0 -71 -3 -80 -6 -21 -8 -20
-33 2 -41 50 -18 52 -26 52 -198 0 -169 -2 -179 -45 -187 -11 -2 -21 -11 -23
-21 -3 -15 8 -17 122 -17 119 0 126 1 126 20 0 14 -7 20 -23 20 -13 0 -32 6
-43 14 -17 13 -19 29 -22 149 -4 149 1 167 51 197 42 26 47 25 47 -10 0 -29
22 -50 54 -50 45 0 63 83 26 120 -29 29 -71 25 -129 -14z"/>
<path d="M2827 550 c-87 -27 -147 -122 -147 -229 0 -88 13 -129 55 -178 47
-55 104 -77 189 -71 125 8 198 93 204 238 3 66 0 81 -25 130 -40 79 -91 112
-180 116 -37 2 -81 -1 -96 -6z m116 -39 c64 -25 102 -159 77 -276 -25 -118
-114 -163 -185 -92 -39 39 -55 89 -55 172 0 83 16 133 55 172 34 34 64 41 108
24z"/>
<path d="M3448 551 c-15 -5 -43 -21 -62 -36 l-36 -27 0 31 0 31 -64 0 c-35 0
-71 -3 -80 -6 -21 -8 -20 -33 2 -41 50 -18 52 -26 52 -198 0 -169 -2 -179 -45
-187 -11 -2 -21 -11 -23 -21 -3 -15 8 -17 117 -17 103 0 121 2 121 16 0 8 -14
20 -31 26 -42 14 -49 40 -49 181 0 142 6 156 75 183 57 21 90 9 111 -41 17
-41 20 -275 4 -306 -6 -11 -21 -19 -35 -19 -18 0 -25 -5 -25 -20 0 -19 7 -20
115 -20 108 0 115 1 115 20 0 13 -7 20 -19 20 -39 0 -46 26 -51 201 l-5 169
-32 31 c-25 25 -41 32 -80 35 -26 2 -60 -1 -75 -5z"/>
<path d="M3884 549 c-18 -5 -46 -22 -63 -38 -60 -56 -28 -138 44 -111 22 8 25
15 25 59 0 49 1 50 34 56 19 4 44 4 55 0 29 -9 53 -59 49 -103 -3 -36 -4 -37
-90 -68 -99 -35 -131 -54 -154 -89 -19 -29 -21 -105 -3 -133 37 -59 146 -69
215 -20 l35 25 29 -28 c30 -31 68 -37 114 -19 36 13 32 34 -8 48 l-34 13 -4
167 c-3 187 -11 212 -75 238 -36 16 -122 17 -169 3z m146 -298 c0 -79 0 -79
-34 -100 -65 -41 -126 -18 -126 46 0 45 14 69 53 90 33 19 86 41 100 42 4 1 7
-35 7 -78z"/>
<path d="M5381 538 c-82 -41 -128 -137 -119 -251 11 -136 93 -217 218 -217 28
0 65 6 83 14 37 16 107 83 107 103 0 31 -30 23 -68 -16 -35 -37 -44 -41 -88
-41 -89 0 -139 50 -151 151 l-6 49 152 0 151 0 0 48 c0 71 -34 132 -90 160
-58 29 -130 29 -189 0z m130 -28 c26 -15 49 -62 49 -105 l0 -35 -100 0 c-112
0 -116 3 -86 74 26 62 88 92 137 66z"/>
<path d="M5842 547 c-48 -15 -92 -62 -92 -98 0 -39 37 -64 74 -50 27 11 28 13
30 71 1 27 6 36 27 44 59 20 106 -17 116 -92 l5 -40 -58 -21 c-33 -12 -79 -29
-104 -38 -25 -9 -60 -32 -77 -50 -28 -29 -33 -42 -33 -81 0 -76 48 -122 127
-122 40 0 115 30 128 49 4 8 16 1 35 -19 29 -31 63 -37 120 -21 30 8 40 41 13
41 -10 0 -29 7 -41 16 -21 14 -22 21 -22 167 0 174 -10 210 -70 239 -39 20
-125 22 -178 5z m158 -288 c0 -65 -2 -73 -29 -100 -53 -52 -141 -32 -141 32 0
51 21 78 83 109 86 43 87 42 87 -41z"/>
<path d="M1671 541 c-19 -12 -6 -41 18 -41 42 0 51 -34 51 -200 0 -165 -4
-180 -47 -180 -16 0 -23 -6 -23 -20 0 -19 7 -20 115 -20 108 0 115 1 115 20 0
11 -7 20 -15 20 -8 0 -24 9 -35 20 -19 19 -20 33 -20 215 l0 195 -72 0 c-40 0
-79 -4 -87 -9z"/>
</g>
</svg>
