<?xml version="1.0" standalone="no"?>
<!DOCTYPE svg PUBLIC "-//W3C//DTD SVG 20010904//EN"
 "http://www.w3.org/TR/2001/REC-SVG-20010904/DTD/svg10.dtd">
<svg version="1.0" xmlns="http://www.w3.org/2000/svg"
 width="388.000000pt" height="388.000000pt" viewBox="0 0 388.000000 388.000000"
 preserveAspectRatio="xMidYMid meet">

<g transform="translate(0.000000,388.000000) scale(0.100000,-0.100000)"
fill="#000000" stroke="none">
<path d="M1803 3713 c-18 -2 -33 -8 -33 -14 0 -5 -6 -9 -14 -9 -8 0 -22 -9
-30 -21 -9 -13 -19 -18 -27 -13 -8 5 -11 3 -7 -7 3 -8 -6 -23 -20 -34 -14 -11
-34 -29 -46 -41 -12 -11 -29 -23 -38 -27 -10 -3 -18 -11 -18 -16 0 -6 -11 -26
-23 -45 -15 -21 -29 -63 -36 -109 -33 -203 66 -383 257 -470 63 -28 213 -30
287 -2 127 47 225 157 262 292 30 113 16 217 -45 320 -34 57 -48 73 -107 119
-79 62 -120 76 -229 79 -56 2 -116 1 -133 -2z"/>
<path d="M846 2982 c-3 -6 -33 -13 -66 -17 -41 -5 -60 -11 -60 -21 0 -9 -11
-14 -30 -14 -24 0 -30 -4 -31 -22 -1 -33 -32 -82 -55 -86 -40 -8 -31 -19 54
-65 48 -27 112 -65 144 -85 161 -105 188 -127 188 -147 0 -16 2 -17 10 -5 6
10 10 11 10 3 0 -7 6 -13 14 -13 7 0 18 -6 24 -13 8 -10 5 -13 -14 -15 -13 -1
-23 3 -21 10 1 7 -26 13 -80 15 -71 4 -84 2 -89 -12 -5 -12 5 -26 32 -48 54
-43 171 -162 219 -222 22 -27 43 -52 47 -53 5 -2 6 -8 2 -13 -3 -5 -14 -4 -27
3 -12 6 -35 12 -51 14 -16 1 -31 6 -35 11 -3 5 -15 13 -26 17 -29 11 -131 20
-123 10 4 -4 4 -12 -1 -18 -6 -7 -12 -23 -14 -36 -3 -14 -7 -30 -9 -36 -1 -7
8 -21 21 -33 13 -12 19 -21 12 -21 -6 0 0 -17 14 -37 14 -21 28 -45 32 -53 3
-8 25 -42 47 -75 22 -33 54 -87 71 -120 18 -33 54 -100 80 -150 57 -106 121
-236 159 -320 15 -33 34 -73 43 -89 19 -35 58 -142 127 -351 66 -199 73 -226
132 -460 53 -213 84 -284 139 -312 66 -34 157 -20 224 34 64 53 113 126 213
323 32 61 135 259 246 470 27 52 78 149 112 215 34 66 78 146 96 178 19 32 34
60 34 62 0 3 20 39 45 81 25 41 45 77 45 79 0 2 23 43 51 92 28 48 67 117 87
153 19 36 40 72 47 80 7 8 15 22 19 30 3 8 15 29 26 45 11 17 23 37 27 45 4 8
18 35 33 60 14 25 31 58 38 74 12 27 12 28 -12 22 -16 -4 -30 -1 -40 9 -8 8
-19 15 -25 15 -5 0 -14 7 -19 16 -5 9 -13 16 -18 16 -5 -1 -8 6 -6 14 2 8 -5
14 -14 14 -14 0 -15 2 -2 23 8 12 36 74 63 137 27 63 53 121 58 128 5 7 8 15
5 17 -3 3 -31 -39 -64 -92 -32 -54 -77 -124 -101 -155 -24 -31 -43 -59 -43
-63 0 -5 -47 -72 -78 -110 -4 -5 -39 -55 -77 -110 -101 -146 -409 -525 -426
-525 -5 0 -17 28 -28 63 -11 34 -29 87 -41 117 -12 30 -24 64 -27 75 -11 37
-158 319 -208 398 -135 213 -288 392 -450 524 -107 88 -88 73 -210 154 -95 63
-249 147 -307 168 -21 8 -31 7 -41 -4 -11 -10 -17 -11 -26 -2 -8 8 -11 8 -11
-1 0 -7 -4 -12 -10 -12 -5 0 -7 6 -4 14 4 9 -3 14 -21 14 -22 0 -24 -3 -13
-17 9 -12 7 -11 -9 2 -12 11 -24 14 -27 9z"/>
<path d="M2464 2693 c-10 -8 -27 -12 -36 -9 -17 4 -46 -14 -93 -57 -11 -10
-43 -34 -72 -53 -29 -19 -55 -39 -58 -44 -8 -12 25 -1 45 15 18 15 215 109
250 120 14 4 34 14 45 22 11 9 13 13 5 11 -8 -3 -27 -2 -41 2 -16 5 -32 2 -45
-7z"/>
<path d="M748 2551 c18 -17 37 -31 43 -31 14 0 -8 20 -46 43 l-30 18 33 -30z"/>
</g>
</svg>
